<?xml version="1.0" encoding="UTF-8"?>
<!DOCTYPE svg PUBLIC "-//W3C//DTD SVG 1.1//EN" "http://www.w3.org/Graphics/SVG/1.1/DTD/svg11.dtd">
<svg xmlns="http://www.w3.org/2000/svg" version="1.1" width="46px" height="44px" style="shape-rendering:geometricPrecision; text-rendering:geometricPrecision; image-rendering:optimizeQuality; fill-rule:evenodd; clip-rule:evenodd" xmlns:xlink="http://www.w3.org/1999/xlink">
<g><path style="opacity:1" fill="#eaedfa" d="M -0.5,-0.5 C 1.5,-0.5 3.5,-0.5 5.5,-0.5C 3.16667,1.16667 1.16667,3.16667 -0.5,5.5C -0.5,3.5 -0.5,1.5 -0.5,-0.5 Z"/></g>
<g><path style="opacity:1" fill="#116afa" d="M 5.5,-0.5 C 15.8333,-0.5 26.1667,-0.5 36.5,-0.5C 39.7926,0.409574 42.2926,2.40957 44,5.5C 44.6667,15.8333 44.6667,26.1667 44,36.5C 43.4697,39.585 41.9697,41.9183 39.5,43.5C 27.8333,43.5 16.1667,43.5 4.5,43.5C 2.0983,41.6984 0.431637,39.3651 -0.5,36.5C -0.5,26.1667 -0.5,15.8333 -0.5,5.5C 1.16667,3.16667 3.16667,1.16667 5.5,-0.5 Z"/></g>
<g><path style="opacity:1" fill="#eaedfa" d="M 36.5,-0.5 C 39.5,-0.5 42.5,-0.5 45.5,-0.5C 45.5,14.1667 45.5,28.8333 45.5,43.5C 43.5,43.5 41.5,43.5 39.5,43.5C 41.9697,41.9183 43.4697,39.585 44,36.5C 44.6667,26.1667 44.6667,15.8333 44,5.5C 42.2926,2.40957 39.7926,0.409574 36.5,-0.5 Z"/></g>
<g><path style="opacity:1" fill="#f5f7fa" d="M 16.5,13.5 C 20.5,13.5 24.5,13.5 28.5,13.5C 28.5,14.8333 28.5,16.1667 28.5,17.5C 26.1667,17.5 23.8333,17.5 21.5,17.5C 21.5,18.8333 21.5,20.1667 21.5,21.5C 23.5,21.5 25.5,21.5 27.5,21.5C 27.5,22.8333 27.5,24.1667 27.5,25.5C 25.5,25.5 23.5,25.5 21.5,25.5C 21.5,26.8333 21.5,28.1667 21.5,29.5C 23.8333,29.5 26.1667,29.5 28.5,29.5C 28.5,30.8333 28.5,32.1667 28.5,33.5C 24.5,33.5 20.5,33.5 16.5,33.5C 16.5,26.8333 16.5,20.1667 16.5,13.5 Z"/></g>
<g><path style="opacity:1" fill="#dde4fa" d="M -0.5,36.5 C 0.431637,39.3651 2.0983,41.6984 4.5,43.5C 2.83333,43.5 1.16667,43.5 -0.5,43.5C -0.5,41.1667 -0.5,38.8333 -0.5,36.5 Z"/></g>
</svg>
